<svg xmlns="http://www.w3.org/2000/svg"  viewBox="0 0 100 100" width="200px" height="200px"><path fill="#c7ede6" d="M87.215,56.71C88.35,54.555,89,52.105,89,49.5c0-6.621-4.159-12.257-10.001-14.478	C78.999,35.015,79,35.008,79,35c0-11.598-9.402-21-21-21c-9.784,0-17.981,6.701-20.313,15.757C36.211,29.272,34.638,29,33,29	c-7.692,0-14.023,5.793-14.89,13.252C12.906,43.353,9,47.969,9,53.5C9,59.851,14.149,65,20.5,65c0.177,0,0.352-0.012,0.526-0.022	C21.022,65.153,21,65.324,21,65.5C21,76.822,30.178,86,41.5,86c6.437,0,12.175-2.972,15.934-7.614C59.612,80.611,62.64,82,66,82	c4.65,0,8.674-2.65,10.666-6.518C77.718,75.817,78.837,76,80,76c6.075,0,11-4.925,11-11C91,61.689,89.53,58.727,87.215,56.71z"/><path fill="#fdfcef" d="M40.875,37.5c0,0,3.64,0,6.125,0s4.5-2.015,4.5-4.5c0-2.333-1.782-4.229-4.055-4.455 C47.467,28.364,47.5,28.187,47.5,28c0-2.485-2.015-4.5-4.5-4.5c-1.438,0-2.703,0.686-3.527,1.736 C39.333,22.6,37.171,20.5,34.5,20.5c-2.761,0-5,2.239-5,5c0,0.446,0.077,0.87,0.187,1.282C29.045,26.005,28.086,25.5,27,25.5 c-1.781,0-3.234,1.335-3.455,3.055C23.364,28.533,23.187,28.5,23,28.5c-2.485,0-4.5,2.015-4.5,4.5s2.015,4.5,4.5,4.5s9.5,0,9.5,0 h5.375V38h3V37.5z"/><path fill="#472b29" d="M34.5,20c-3.033,0-5.5,2.467-5.5,5.5c0,0.016,0,0.031,0,0.047C28.398,25.192,27.71,25,27,25 c-1.831,0-3.411,1.261-3.858,3.005C23.095,28.002,23.048,28,23,28c-2.757,0-5,2.243-5,5s2.243,5,5,5h14.875 c0.276,0,0.5-0.224,0.5-0.5s-0.224-0.5-0.5-0.5H23c-2.206,0-4-1.794-4-4s1.794-4,4-4c0.117,0,0.23,0.017,0.343,0.032l0.141,0.019 c0.021,0.003,0.041,0.004,0.062,0.004c0.246,0,0.462-0.185,0.495-0.437C24.232,27.125,25.504,26,27,26 c0.885,0,1.723,0.401,2.301,1.1c0.098,0.118,0.241,0.182,0.386,0.182c0.078,0,0.156-0.018,0.228-0.056 c0.209-0.107,0.314-0.346,0.254-0.573C30.054,26.218,30,25.852,30,25.5c0-2.481,2.019-4.5,4.5-4.5c2.381,0,4.347,1.872,4.474,4.263 c0.011,0.208,0.15,0.387,0.349,0.45c0.05,0.016,0.101,0.024,0.152,0.024c0.15,0,0.296-0.069,0.392-0.192 C40.638,24.563,41.779,24,43,24c2.206,0,4,1.794,4,4c0,0.117-0.017,0.23-0.032,0.343l-0.019,0.141 c-0.016,0.134,0.022,0.268,0.106,0.373c0.084,0.105,0.207,0.172,0.34,0.185C49.451,29.247,51,30.949,51,33c0,2.206-1.794,4-4,4 h-6.125c-0.276,0-0.5,0.224-0.5,0.5s0.224,0.5,0.5,0.5H47c2.757,0,5-2.243,5-5c0-2.397-1.689-4.413-4.003-4.877 C47.999,28.082,48,28.041,48,28c0-2.757-2.243-5-5-5c-1.176,0-2.293,0.416-3.183,1.164C39.219,21.76,37.055,20,34.5,20L34.5,20z"/><path fill="#472b29" d="M46.883,28.5c-1.326,0-2.508,0.897-2.874,2.182c-0.038,0.133,0.039,0.271,0.172,0.309 C44.205,30.997,44.228,31,44.25,31c0.109,0,0.209-0.072,0.24-0.182C44.795,29.748,45.779,29,46.883,29 c0.117,0,0.23,0.014,0.342,0.029c0.012,0.002,0.023,0.003,0.035,0.003c0.121,0,0.229-0.092,0.246-0.217 c0.019-0.137-0.077-0.263-0.214-0.281C47.158,28.516,47.022,28.5,46.883,28.5L46.883,28.5z"/><path fill="#fff" d="M18.405,51H8.5C8.224,51,8,50.776,8,50.5S8.224,50,8.5,50h9.905c0.276,0,0.5,0.224,0.5,0.5 S18.682,51,18.405,51z"/><path fill="#fff" d="M21.5,51h-1c-0.276,0-0.5-0.224-0.5-0.5s0.224-0.5,0.5-0.5h1c0.276,0,0.5,0.224,0.5,0.5 S21.777,51,21.5,51z"/><path fill="#fff" d="M26.491,53H17.5c-0.276,0-0.5-0.224-0.5-0.5s0.224-0.5,0.5-0.5h8.991c0.276,0,0.5,0.224,0.5,0.5 S26.767,53,26.491,53z"/><path fill="#fff" d="M15.5,53h-1c-0.276,0-0.5-0.224-0.5-0.5s0.224-0.5,0.5-0.5h1c0.276,0,0.5,0.224,0.5,0.5 S15.777,53,15.5,53z"/><path fill="#fff" d="M12.5,53h-2c-0.276,0-0.5-0.224-0.5-0.5s0.224-0.5,0.5-0.5h2c0.276,0,0.5,0.224,0.5,0.5 S12.777,53,12.5,53z"/><path fill="#fff" d="M18.5,55h-2c-0.276,0-0.5-0.224-0.5-0.5s0.224-0.5,0.5-0.5h2c0.276,0,0.5,0.224,0.5,0.5 S18.776,55,18.5,55z"/><path fill="#fff" d="M21.5,46c-0.177,0-0.823,0-1,0c-0.276,0-0.5,0.224-0.5,0.5c0,0.276,0.224,0.5,0.5,0.5 c0.177,0,0.823,0,1,0c0.276,0,0.5-0.224,0.5-0.5C22,46.224,21.776,46,21.5,46z"/><path fill="#fff" d="M21.5,48c-0.177,0-4.823,0-5,0c-0.276,0-0.5,0.224-0.5,0.5c0,0.276,0.224,0.5,0.5,0.5 c0.177,0,4.823,0,5,0c0.276,0,0.5-0.224,0.5-0.5C22,48.224,21.776,48,21.5,48z"/><path fill="#fff" d="M26.5,50c-0.177,0-2.823,0-3,0c-0.276,0-0.5,0.224-0.5,0.5c0,0.276,0.224,0.5,0.5,0.5 c0.177,0,2.823,0,3,0c0.276,0,0.5-0.224,0.5-0.5C27,50.224,26.776,50,26.5,50z"/><g><path fill="#f8e55b" d="M33,71.3c-1.82,0-3.3-1.48-3.3-3.3V32c0-1.82,1.48-3.3,3.3-3.3h36c1.82,0,3.3,1.48,3.3,3.3v36 c0,1.82-1.48,3.3-3.3,3.3H33z"/><path fill="#472b29" d="M69,29.4c1.434,0,2.6,1.166,2.6,2.6v36c0,1.434-1.166,2.6-2.6,2.6H33c-1.434,0-2.6-1.166-2.6-2.6V32 c0-1.434,1.166-2.6,2.6-2.6H69 M69,28H33c-2.209,0-4,1.791-4,4v36c0,2.209,1.791,4,4,4h36c2.209,0,4-1.791,4-4V32 C73,29.791,71.209,28,69,28L69,28z"/></g><g><path fill="#605e60" d="M42.003,59.751l-0.37-0.183c-5.092-2.52-8.133-6.807-8.133-11.469C33.5,40.601,41.351,34.5,51,34.5 s17.5,6.101,17.5,13.599C68.5,55.488,60.649,61.5,51,61.5c-0.336,0-0.67,0.011-1.002,0.021c-0.315,0.01-0.628,0.02-0.939,0.02 c-0.444,0-0.805-0.021-1.136-0.067l-0.191-0.027l-7.637,5.235L42.003,59.751z"/><path fill="#472b29" d="M51,35c9.374,0,17,5.876,17,13.099C68,55.213,60.374,61,51,61c-0.342,0-0.681,0.011-1.018,0.022 c-0.31,0.01-0.618,0.02-0.924,0.02c-0.42,0-0.759-0.02-1.067-0.062l-0.383-0.053l-0.319,0.219l-6.356,4.357l1.442-5.219 l0.22-0.796l-0.74-0.366C36.936,56.687,34,52.567,34,48.099C34,40.876,41.626,35,51,35 M51,34c-9.941,0-18,6.312-18,14.099 c0,5.022,3.363,9.42,8.411,11.917l-1.805,6.534c-0.095,0.345,0.178,0.637,0.485,0.637c0.094,0,0.192-0.028,0.282-0.09l7.481-5.128 c0.398,0.055,0.799,0.072,1.204,0.072C49.696,62.042,50.343,62,51,62c9.941,0,18-6.114,18-13.901C69,40.312,60.941,34,51,34L51,34 z"/></g><g><path fill="#f8e55b" d="M48.765,45.244C48.517,44.519,47.978,44,47.178,44c-0.811,0-1.367,0.576-1.616,1.301l-2.344,6.357 c-0.043,0.097-0.065,0.206-0.065,0.325c0,0.563,0.454,1.017,1.017,1.017c0.465,0,0.855-0.292,0.974-0.714l0.389-1.244h3.169 l0.389,1.222C49.233,52.686,49.633,53,50.109,53c0.584,0,1.06-0.487,1.06-1.06c0-0.119-0.022-0.238-0.065-0.357L48.765,45.244z M46.085,49.311l1.008-2.84l1.069,2.84H46.085z"/><path fill="#472b29" d="M50.109,53.25c-0.569,0-1.073-0.364-1.254-0.907l-0.334-1.051h-2.803l-0.334,1.069 c-0.149,0.529-0.637,0.889-1.212,0.889c-0.698,0-1.267-0.568-1.267-1.267c0-0.154,0.029-0.298,0.087-0.427l2.337-6.342 c0.314-0.916,1.006-1.465,1.85-1.465c0.851,0,1.516,0.515,1.824,1.413l2.337,6.333c0.054,0.146,0.081,0.295,0.081,0.443 C51.419,52.662,50.832,53.25,50.109,53.25z M45.534,50.792h3.169c0.109,0,0.205,0.07,0.238,0.174l0.389,1.222 c0.111,0.334,0.425,0.562,0.779,0.562c0.439,0,0.81-0.371,0.81-0.81c0-0.09-0.017-0.181-0.05-0.271l-2.339-6.338 c-0.14-0.407-0.498-1.081-1.353-1.081c-0.894,0-1.262,0.792-1.379,1.132l-2.345,6.363c-0.035,0.08-0.049,0.155-0.049,0.238 c0,0.423,0.344,0.767,0.767,0.767c0.349,0,0.644-0.213,0.733-0.532l0.392-1.251C45.328,50.863,45.424,50.792,45.534,50.792z M48.162,49.562h-2.077c-0.081,0-0.157-0.04-0.204-0.106s-0.059-0.151-0.032-0.228l1.008-2.84 c0.035-0.099,0.128-0.166,0.233-0.167c0.122-0.027,0.199,0.063,0.236,0.162l1.069,2.84c0.029,0.077,0.019,0.163-0.028,0.23 C48.321,49.521,48.244,49.562,48.162,49.562z M46.439,49.062h1.361L47.1,47.2L46.439,49.062z"/><path fill="#f8e55b" d="M56.046,51.075h-2.083v-5.949c0-0.617-0.498-1.125-1.114-1.125c-0.617,0-1.125,0.508-1.125,1.125 v6.782c0,0.649,0.357,0.995,0.995,0.995h3.327c0.508,0,0.909-0.411,0.909-0.919C56.954,51.486,56.554,51.075,56.046,51.075z"/><path fill="#472b29" d="M56.045,53.152h-3.327c-0.78,0-1.245-0.465-1.245-1.245v-6.782c0-0.758,0.617-1.375,1.375-1.375 c0.752,0,1.364,0.617,1.364,1.375v5.7h1.833c0.639,0,1.159,0.52,1.159,1.159C57.204,52.628,56.684,53.152,56.045,53.152z M52.849,44.25c-0.482,0-0.875,0.393-0.875,0.875v6.782c0,0.508,0.237,0.745,0.745,0.745h3.327c0.369,0,0.659-0.294,0.659-0.669 c0-0.363-0.295-0.659-0.659-0.659h-2.083c-0.138,0-0.25-0.112-0.25-0.25v-5.95C53.712,44.643,53.325,44.25,52.849,44.25z"/><g><path fill="#f8e55b" d="M44.764,44.984c0-0.487-0.389-0.887-0.887-0.887h-5.593c-0.487,0-0.887,0.4-0.887,0.887 c0,0.487,0.4,0.887,0.887,0.887h1.677v6.004c0,0.617,0.508,1.125,1.125,1.125c0.617,0,1.114-0.508,1.114-1.125v-6.004h1.677 C44.375,45.871,44.764,45.471,44.764,44.984z"/><path fill="#472b29" d="M41.086,53.25c-0.758,0-1.375-0.617-1.375-1.375v-5.753h-1.427c-0.627,0-1.137-0.51-1.137-1.137 s0.51-1.137,1.137-1.137h5.593c0.627,0,1.137,0.51,1.137,1.137s-0.51,1.137-1.137,1.137h-1.427v5.753 C42.451,52.633,41.839,53.25,41.086,53.25z M38.285,44.347c-0.351,0-0.637,0.286-0.637,0.637s0.286,0.637,0.637,0.637h1.677 c0.138,0,0.25,0.112,0.25,0.25v6.003c0,0.482,0.393,0.875,0.875,0.875c0.477,0,0.864-0.393,0.864-0.875v-6.003 c0-0.138,0.112-0.25,0.25-0.25h1.677c0.351,0,0.637-0.286,0.637-0.637s-0.286-0.637-0.637-0.637H38.285z"/></g><g><path fill="#f8e55b" d="M63.935,51.291l-2.591-3.335l2.335-2.431c0.119-0.151,0.206-0.368,0.206-0.584 c0-0.519-0.422-0.941-0.93-0.941c-0.292,0-0.546,0.175-0.736,0.368c-0.578,0.588-2.673,2.591-2.673,2.591v-1.856 c0-0.606-0.487-1.103-1.103-1.103c-0.606,0-1.103,0.498-1.103,1.103v6.793c0,0.606,0.498,1.103,1.103,1.103 c0.617,0,1.103-0.498,1.103-1.103V49.62l0.251-0.196l2.267,3.056C62.269,52.784,62.615,53,63.015,53 c0.606,0,1.093-0.498,1.093-1.114C64.108,51.669,64.043,51.464,63.935,51.291z"/><path fill="#472b29" d="M63.015,53.25c-0.458,0-0.891-0.235-1.159-0.628l-2.061-2.778v2.053 c0,0.746-0.607,1.354-1.353,1.354s-1.354-0.607-1.354-1.354v-6.793c0-0.746,0.607-1.354,1.354-1.354s1.353,0.607,1.353,1.354v1.27 c0.643-0.617,1.835-1.764,2.245-2.181c0.878-0.892,2.094-0.224,2.094,0.749c0,0.257-0.097,0.533-0.259,0.739l-2.202,2.293 l2.458,3.165c0.153,0.241,0.226,0.493,0.226,0.748C64.358,52.638,63.755,53.25,63.015,53.25z M59.796,49.175 c0.011,0,0.022,0.001,0.034,0.002c0.067,0.009,0.127,0.044,0.167,0.099l2.267,3.056c0.18,0.265,0.458,0.418,0.751,0.418 c0.465,0,0.843-0.388,0.843-0.864c0-0.161-0.047-0.321-0.135-0.462l-2.577-3.314c-0.076-0.098-0.069-0.237,0.017-0.327 l2.335-2.431c0.078-0.101,0.136-0.265,0.136-0.411c0-0.381-0.305-0.691-0.68-0.691c-0.222,0-0.426,0.159-0.558,0.293 c-0.574,0.584-2.593,2.515-2.678,2.597c-0.072,0.069-0.18,0.089-0.271,0.049c-0.092-0.04-0.152-0.13-0.152-0.23v-1.855 c0-0.471-0.383-0.854-0.853-0.854c-0.471,0-0.854,0.383-0.854,0.854v6.793c0,0.471,0.383,0.854,0.854,0.854 c0.47,0,0.853-0.383,0.853-0.854V49.62c0-0.077,0.036-0.15,0.097-0.197l0.251-0.195C59.687,49.193,59.741,49.175,59.796,49.175z"/></g></g><g><path fill="#fdfcef" d="M73.5,73.5c0,0,1.567,0,3.5,0s3.5-1.567,3.5-3.5c0-1.781-1.335-3.234-3.055-3.455 C77.473,66.366,77.5,66.187,77.5,66c0-1.933-1.567-3.5-3.5-3.5c-1.032,0-1.95,0.455-2.59,1.165 c-0.384-1.808-1.987-3.165-3.91-3.165c-2.209,0-4,1.791-4,4c0,0.191,0.03,0.374,0.056,0.558C63.128,64.714,62.592,64.5,62,64.5 c-1.228,0-2.245,0.887-2.455,2.055C59.366,66.527,59.187,66.5,59,66.5c-1.933,0-3.5,1.567-3.5,3.5s1.567,3.5,3.5,3.5s7.5,0,7.5,0 V74h7V73.5z"/><path fill="#472b29" d="M75.25,69C75.112,69,75,68.888,75,68.75c0-1.223,0.995-2.218,2.218-2.218 c0.034,0.009,0.737-0.001,1.244,0.136c0.133,0.036,0.212,0.173,0.176,0.306c-0.036,0.134-0.173,0.213-0.306,0.176 c-0.444-0.12-1.1-0.12-1.113-0.118c-0.948,0-1.719,0.771-1.719,1.718C75.5,68.888,75.388,69,75.25,69z"/><circle cx="68.5" cy="73.5" r=".5" fill="#472b29"/><path fill="#472b29" d="M77,74h-3.5c-0.276,0-0.5-0.224-0.5-0.5s0.224-0.5,0.5-0.5H77c1.654,0,3-1.346,3-3 c0-1.496-1.125-2.768-2.618-2.959c-0.134-0.018-0.255-0.088-0.336-0.196s-0.115-0.244-0.094-0.377C76.975,66.314,77,66.16,77,66 c0-1.654-1.346-3-3-3c-0.85,0-1.638,0.355-2.219,1c-0.125,0.139-0.321,0.198-0.5,0.148c-0.182-0.049-0.321-0.195-0.36-0.379 C70.58,62.165,69.141,61,67.5,61c-1.93,0-3.5,1.57-3.5,3.5c0,0.143,0.021,0.28,0.041,0.418c0.029,0.203-0.063,0.438-0.242,0.54 c-0.179,0.102-0.396,0.118-0.556-0.01C62.878,65.155,62.449,65,62,65c-0.966,0-1.792,0.691-1.963,1.644 c-0.048,0.267-0.296,0.446-0.569,0.405C59.314,67.025,59.16,67,59,67c-1.654,0-3,1.346-3,3s1.346,3,3,3h7.5 c0.276,0,0.5,0.224,0.5,0.5S66.776,74,66.5,74H59c-2.206,0-4-1.794-4-4s1.794-4,4-4c0.059,0,0.116,0.002,0.174,0.006 C59.588,64.82,60.711,64,62,64c0.349,0,0.689,0.061,1.011,0.18C63.176,61.847,65.126,60,67.5,60c1.831,0,3.466,1.127,4.153,2.774 C72.333,62.276,73.155,62,74,62c2.206,0,4,1.794,4,4c0,0.048-0.001,0.095-0.004,0.142C79.739,66.59,81,68.169,81,70 C81,72.206,79.206,74,77,74z"/><path fill="#472b29" d="M71.5,73c-0.159,0-0.841,0-1,0c-0.276,0-0.5,0.224-0.5,0.5c0,0.276,0.224,0.5,0.5,0.5 c0.159,0,0.841,0,1,0c0.276,0,0.5-0.224,0.5-0.5C72,73.224,71.776,73,71.5,73z"/></g><g><path fill="#472b29" d="M44.319,61.256c-0.104,0-0.205-0.032-0.29-0.092c-0.171-0.122-0.248-0.339-0.192-0.541l0.534-1.932 l-1.851-0.916c-2.503-1.238-4.466-2.961-5.677-4.983c-0.071-0.118-0.033-0.272,0.086-0.343c0.117-0.072,0.271-0.033,0.343,0.086 c1.162,1.939,3.053,3.596,5.47,4.792l2.036,1.007c0.107,0.053,0.162,0.175,0.13,0.291l-0.589,2.13l1.129-0.774 c0.115-0.078,0.27-0.048,0.348,0.064c0.078,0.114,0.049,0.27-0.064,0.348l-1.129,0.774C44.517,61.226,44.42,61.256,44.319,61.256z M46.299,59.952c-0.08,0-0.158-0.038-0.206-0.109c-0.078-0.114-0.049-0.27,0.065-0.347l0.878-0.602 c0.051-0.035,0.115-0.049,0.175-0.042l1.054,0.146c0.391,0.055,0.999,0.046,1.601,0.026C50.276,59.011,50.637,59,51,59 c4.146,0,8.15-1.272,10.985-3.489c0.107-0.085,0.265-0.067,0.351,0.043c0.085,0.108,0.066,0.266-0.043,0.351 C59.372,58.189,55.256,59.5,51,59.5c-0.358,0-0.713,0.011-1.066,0.022c-0.75,0.025-1.313,0.03-1.737-0.029l-0.958-0.132 l-0.798,0.547C46.397,59.938,46.348,59.952,46.299,59.952z M36.613,52.087c-0.093,0-0.183-0.053-0.226-0.143 c-0.33-0.695-0.571-1.414-0.717-2.139c-0.027-0.135,0.061-0.267,0.196-0.294c0.134-0.027,0.267,0.06,0.294,0.196 c0.138,0.685,0.366,1.365,0.678,2.022c0.06,0.125,0.006,0.274-0.118,0.333C36.686,52.08,36.649,52.087,36.613,52.087z M35.772,48.958c-0.129,0-0.239-0.1-0.249-0.231C35.507,48.519,35.5,48.31,35.5,48.1c0-0.138,0.112-0.25,0.25-0.25 S36,47.961,36,48.1c0,0.197,0.007,0.394,0.022,0.59c0.01,0.138-0.093,0.257-0.231,0.268 C35.785,48.958,35.778,48.958,35.772,48.958z M63.483,41.837c-0.066,0-0.132-0.026-0.182-0.078 c-0.155-0.164-0.315-0.324-0.481-0.482c-0.1-0.095-0.104-0.253-0.009-0.354c0.096-0.1,0.254-0.103,0.354-0.009 c0.172,0.164,0.339,0.33,0.5,0.5c0.095,0.1,0.09,0.258-0.01,0.354C63.607,41.814,63.545,41.837,63.483,41.837z M62.069,40.55 c-0.054,0-0.108-0.018-0.154-0.053c-0.379-0.298-0.784-0.583-1.204-0.848c-0.117-0.074-0.152-0.228-0.078-0.345 c0.074-0.116,0.229-0.151,0.345-0.078c0.435,0.274,0.854,0.569,1.246,0.877c0.109,0.085,0.127,0.243,0.042,0.351 C62.217,40.518,62.143,40.55,62.069,40.55z M41.018,39.776c-0.082,0-0.162-0.041-0.21-0.114c-0.075-0.116-0.042-0.271,0.074-0.346 C43.694,37.5,47.288,36.5,51,36.5c3.243,0,6.351,0.744,8.986,2.151c0.122,0.065,0.168,0.217,0.103,0.338 c-0.066,0.123-0.217,0.168-0.338,0.103C57.188,37.724,54.161,37,51,37c-3.617,0-7.114,0.972-9.846,2.736 C41.112,39.763,41.065,39.776,41.018,39.776z"/></g><g><path fill="#fff" d="M70.5,21h-10c-0.276,0-0.5-0.224-0.5-0.5s0.224-0.5,0.5-0.5h10c0.276,0,0.5,0.224,0.5,0.5 S70.776,21,70.5,21z"/><path fill="#fff" d="M74.5,21h-2c-0.276,0-0.5-0.224-0.5-0.5s0.224-0.5,0.5-0.5h2c0.276,0,0.5,0.224,0.5,0.5 S74.776,21,74.5,21z"/><path fill="#fff" d="M79.5,23h-10c-0.276,0-0.5-0.224-0.5-0.5s0.224-0.5,0.5-0.5h10c0.276,0,0.5,0.224,0.5,0.5 S79.777,23,79.5,23z"/><path fill="#fff" d="M67.5,23h-1c-0.276,0-0.5-0.224-0.5-0.5s0.224-0.5,0.5-0.5h1c0.276,0,0.5,0.224,0.5,0.5 S67.776,23,67.5,23z"/><path fill="#fff" d="M64.375,23H62.5c-0.276,0-0.5-0.224-0.5-0.5s0.224-0.5,0.5-0.5h1.875c0.276,0,0.5,0.224,0.5,0.5 S64.651,23,64.375,23z"/><path fill="#fff" d="M73.5,19h-5c-0.276,0-0.5-0.224-0.5-0.5s0.224-0.5,0.5-0.5h5c0.276,0,0.5,0.224,0.5,0.5 S73.777,19,73.5,19z"/><path fill="#fff" d="M70.5,25h-2c-0.276,0-0.5-0.224-0.5-0.5s0.224-0.5,0.5-0.5h2c0.276,0,0.5,0.224,0.5,0.5 S70.776,25,70.5,25z"/></g></svg>